<?xml version="1.0" encoding="UTF-8" standalone="no"?>
<!-- Generator: Adobe Illustrator 27.7.0, SVG Export Plug-In . SVG Version: 6.00 Build 0)  -->

<svg
   version="1.1"
   id="Layer_1"
   x="0px"
   y="0px"
   viewBox="0 0 841.89 595.28"
   style="enable-background:new 0 0 841.89 595.28;"
   xml:space="preserve"
   sodipodi:docname="logo-sklep-zooarty.svg"
   inkscape:version="1.4 (86a8ad7, 2024-10-11)"
   xmlns:inkscape="http://www.inkscape.org/namespaces/inkscape"
   xmlns:sodipodi="http://sodipodi.sourceforge.net/DTD/sodipodi-0.dtd"
   xmlns="http://www.w3.org/2000/svg"
   xmlns:svg="http://www.w3.org/2000/svg"><defs
   id="defs2" /><sodipodi:namedview
   id="namedview2"
   pagecolor="#ffffff"
   bordercolor="#000000"
   borderopacity="0.25"
   inkscape:showpageshadow="2"
   inkscape:pageopacity="0.0"
   inkscape:pagecheckerboard="0"
   inkscape:deskcolor="#d1d1d1"
   inkscape:zoom="1.7017201"
   inkscape:cx="371.0951"
   inkscape:cy="297.64001"
   inkscape:window-width="2240"
   inkscape:window-height="1294"
   inkscape:window-x="-11"
   inkscape:window-y="-11"
   inkscape:window-maximized="1"
   inkscape:current-layer="Layer_1" />
<style
   type="text/css"
   id="style1">
	.st0{fill-rule:evenodd;clip-rule:evenodd;fill:#8ECEA2;}
</style>
<g
   id="g2"
   style="fill:#22280b">
	<g
   id="g1"
   style="fill:#22280b">
		<path
   class="st0"
   d="M723.24,351.77c-1.55-12.84-0.4-26.34,4.51-34.66c4.53-7.68,12.57-14.61,13.34-25.65    c-0.35,4.97-0.69,9.94-1.04,14.9c3.37-2.51,4.72-8.33,6.24-12.65c2.69-7.63,4.65-15.6,6.76-24.09c0.98-3.92,2.28-8.32,2.25-13    c1.5,2.37,3,4.74,4.51,7.11c0,0.12,0,0.23,0,0.35c0.53-1.29,0.3-3.43,0.17-4.85c-0.96-11.12-3.1-18.63-7.45-26    c-5.71-9.67-13.01-16.58-19.76-24.96c-3.81-3.93-7.63-7.86-11.44-11.79c-4.75-5.92-8.87-12.54-13.69-18.54    c-3.23-2.71-6.47-5.43-9.71-8.15c-0.12-0.06-0.23-0.12-0.35-0.17c2-0.23,4.21-0.05,5.89-0.69c0.12-0.17,0.23-0.35,0.35-0.52    c-5.47-2.61-9.95-5.9-16.81-7.11c-7-1.23-11.7,3.22-18.2,0.69c-6.86-2.67-13-6.65-19.06-10.23c-11.49-6.76-23.74-12.56-38.82-15.6    c-6.84-1.38-15.17-0.26-20.45,1.73c-3.92,1.48-8.65,4.46-14.56,3.47c-11.07-1.86-24.05-6.16-35.7-2.6    c-16.49,5.03-26.71,16.2-40.03,24.09c-3.65,2.16-8.12,3.24-13,4.16c-2.83,0.35-5.66,0.69-8.49,1.04    c-8.23,2.52-17.45,8.12-21.32,15.08c0,0.06,0,0.12,0,0.17c2.6-0.92,5.2-1.85,7.8-2.77c-2.95,2.02-5.89,4.04-8.84,6.07    c-2.14,1.91-4.28,3.81-6.41,5.72c-0.35,0.4-0.69,0.81-1.04,1.21c1.44,0.4,2.89,0.81,4.33,1.21c-1.95,6.4-11.84,11.67-16.12,16.64    c0,0.06,0,0.12,0,0.17c0.78,0.38,2.19,0.39,3.47,0.35c-12.74,16.63-39.52,35.31-40.03,62.57c3.74-2.8,4.9-8.31,8.49-11.27    c-0.25,5.84-1.66,12.44-0.52,18.54c1.1,5.86,3.1,10.58,5.03,15.42c0.87,2.37,1.73,4.74,2.6,7.11c0,0.12,0,0.23,0,0.35    c0.35-2.48,0.69-4.97,1.04-7.45c0.06,0,0.12,0,0.17,0c0.62,3.23,5.67,13.85,8.32,14.56c0.46-1.11,1.32-0.88,1.73-2.08    c0.12-0.06,0.23-0.12,0.35-0.17c1.31,3.87,4.7,7.09,6.93,10.23c5.97,8.41,11.02,17.35,10.75,32.06c-136.32,0-272.69,0-409.01,0    c0,4.16,0,8.32,0,12.48c156.95,0.17,313.94,0.35,470.88,0.52c5.9,9.77,14.51,17.83,27.9,20.1c7.01,1.19,11.08-3.26,17.16-2.08    c4,0.78,5.34,4.32,9.71,5.2c7.25,1.46,14.41-1.41,20.62-2.43c9.43-1.53,17.14,3.95,26,1.21c6.48-2,9.63-7.16,15.25-9.88    c16.2,7.85,27.17-1.62,34.66-11.79c42.51-0.12,85.04-0.23,127.56-0.35c0.12-4.16,0.23-8.32,0.35-12.48    C765.42,352.12,744.33,351.95,723.24,351.77z M599.84,382.1c-5.29-0.24-10.5-2.13-16.46-1.21c-8.66,1.34-19.24,1.65-26.52-0.69    c-0.06-0.12-0.12-0.23-0.17-0.35c7.69-5.96,16.81-11.17,26.34-15.25c2.43-0.69,4.85-1.39,7.28-2.08    c9.56,0.01,14.07,3.21,19.58,7.11c1.66,1.18,3.24,2.79,5.37,3.47C616.37,379.76,607.25,382.44,599.84,382.1z M719.08,310.87    c-0.81,1.27-1.62,2.54-2.43,3.81c-0.12,0.06-0.23,0.12-0.35,0.17c0.03-12.44,3.42-23.99,5.55-35.53c0.76-4.12,0.97-10.6,0-14.73    c-1.05-4.45-3.41-7.13-5.03-10.57c-0.23-0.17-0.46-0.35-0.69-0.52c-0.35,11.21-0.69,22.42-1.04,33.62c-0.06,0-0.12,0-0.17,0    c-1.68-5.18-3.5-13.7-7.45-16.81c0-0.12,0-0.23,0-0.35c-0.75,2.23,1.39,10.4,1.91,13c1.85,11.78,3.7,23.57,5.55,35.36    c-4.9-4.07-6.49-21.09-7.63-29.29c-0.06,0-0.12,0-0.17,0c-2.29,3.41-1.07,11.31-0.17,15.42c2.39,11,6.42,20.81,5.72,33.97    c-6.43,0.63-9.03-2.02-12.48-4.68c-0.06,0.06-0.12,0.12-0.17,0.17c2.76,5.73,6.99,8.51,11.79,12.13c1.56,1.27,3.12,2.54,4.68,3.81    c0.52,0.58,1.04,1.16,1.56,1.73c-19.46,0.07-28.15-11.08-32.06-26.69c-1.01-4.03-0.64-8.01-1.39-12.65    c-0.93-5.8-0.34-13.59,0.52-18.89c1.55-9.59,1.13-20.09,5.02-27.54c0-0.12,0-0.24,0.01-0.36c0,0.12,0,0.23,0,0.35    c0,0,0,0.01-0.01,0.01c-0.23,11.61-0.46,23.21-0.69,34.82c0.06,0,0.12,0,0.17,0c1.73-11.84,3.47-23.69,5.2-35.53    c0.23,1.85,0.46,3.7,0.69,5.55c0.88,5.09,0.98,11.58,3.47,15.25c0,0.12,0,0.23,0,0.35c1.11-2.8,0.35-8,0.35-11.44    c0.06-8.2,0.12-16.41,0.17-24.61c1.04,3.41,2.08,6.82,3.12,10.23c0.06,0,0.12,0,0.17,0c0.06,0,0.12,0,0.17,0    c-0.64-7.45-1.27-14.91-1.91-22.36c0.06,0,0.12,0,0.17,0c2.71,4.85,5.43,9.71,8.15,14.56c0.12,0.06,0.23,0.12,0.35,0.17    c0.06,0,0.12,0,0.17,0c-1.62-4.22-3.24-8.43-4.85-12.65c-1.64-4.21-2.17-8.65-3.47-13.34c0-0.06,0-0.12,0-0.17    c2.57,1.3,4.18,4.67,6.24,6.59c0.06,0,0.12,0,0.17,0c-2.31-5.55-4.62-11.09-6.93-16.64c4.51,1.85,9.01,3.7,13.52,5.55    c0.06,0,0.12,0,0.17,0c0-0.06,0-0.12,0-0.17c-2.08-1.5-4.16-3-6.24-4.51c-2.66-2.77-5.32-5.55-7.97-8.32    c6.83,2.46,11.52,9.75,20.28,9.88c0-0.06,0-0.12,0-0.17c-5.25-1.72-20.41-14.6-23.05-19.06c2.37,1.1,4.74,2.2,7.11,3.29    c-1.04-3.26-14.47-15.34-17.85-16.98c1.21,4.04,2.43,8.09,3.64,12.13c-1.44-1.73-2.89-3.47-4.33-5.2    c-5.07-6.31-21.56-22-31.37-22.53c0,0.06,0,0.12,0,0.17c1.73,2.54,3.47,5.08,5.2,7.63c0.12,0.12,0.23,0.23,0.35,0.35    c-1.44,0-2.89,0-4.33,0c0,0.06,0,0.12,0,0.17c2.66,3.29,5.32,6.59,7.97,9.88c0.29,0.35,0.58,0.69,0.87,1.04    c-3.14-1.34-5.13-3.42-8.15-4.85c-0.06,0.06-0.12,0.12-0.17,0.17c3.18,4.39,6.35,8.78,9.53,13.17    c8.81,14.14,17.95,38.98,13.34,63.26c-1.81,9.52-4.1,17.97-6.24,26.52c-2.25,8.95-2.35,25.82-8.67,30.16    c-1.1-6.7-2.2-13.4-3.29-20.1c-0.06,0-0.12,0-0.17,0c-6.43,6.1-3.32,27.23-1.56,36.74c0.55,2.97,1.44,7.39,0.87,10.92    c-1.71,10.53-5.92,17.02-13.34,21.66c-16.03,10.02-33.43-2.86-43.5-10.57c-3.28-2.51-9.65-6.26-8.49-12.83    c2.03-11.47,15.59-16.6,20.28-27.04c0-0.06,0-0.12,0-0.17c-3.26,1.1-6.12,2.62-10.05,3.29c-9.97,1.7-15.64-9-17.33-15.94    c-2.48,1.97-1.85,5.95-3.29,9.01c0,0.12,0,0.23,0,0.35c-1.44-3.51-1.22-7.56-2.6-10.75c-5.83-13.49-16.31-0.41-26-2.08    c-5.32-7.12,4.8-12.11,9.88-13.86c16.68-5.75,38.11-2.15,50.26,4.68c0.07,2.87,0.15,5.75-0.52,7.97    c-5.49,3.07-12.85-7.53-19.76-0.87c-1.37,1.32-2.65,2.81-3.12,5.03c-0.6,2.8,0.92,4.9,1.91,6.24c5.23,7.06,17.84,5.68,24.26,0.69    c14.76-11.46-1.48-31.01-11.79-35.53c-19.76-8.66-47.06-2.26-55.81,12.13c-3,4.94-5.69,14.9-1.91,21.14    c3.26,5.37,11.53,7.2,19.41,4.85c3.25-0.97,6.31-2.37,9.71-1.39c2.01,3.59-4.51,7.53-6.93,8.67c-6.04-0.5-11.38-4.23-16.29-6.41    c-0.06,0-0.12,0-0.17,0c0.49,9.05,7.64,13.73,14.04,16.98c3.95,2.01,9.78,3.97,10.75,8.84c1.02,5.11-8.3,10.65-11.09,12.82    c-2.82,2.2-5.01,5.38-7.28,8.15c-5.45,6.62-22.7,19.13-35.18,12.83c-5.44-2.75-19.16-17.07-13.69-26    c3.96-6.46,11.38-6.85,14.04-15.77c1.84-6.16-0.43-13.63,0.69-20.8c0.81-6.7,1.62-13.4,2.43-20.1c-0.12,0-0.23,0-0.35,0    c-2.6,6.76-5.2,13.52-7.8,20.28c-2.54,6.52-2.93,14.37-5.03,21.32c-1.29,4.27-3.25,8.32-4.51,12.13    c-0.12,0.06-0.23,0.12-0.35,0.17c-1.84-6.77-1.71-15.51-3.29-23.22c-1.27-4.27-2.54-8.55-3.81-12.82    c-4.78-12.36-11.01-23.28-14.9-36.4c-1.69-5.67-1.74-11.38-2.77-18.02c-0.12-4.74-0.23-9.47-0.35-14.21    c1.41-8.89,2.77-17.27,5.2-25.13c1.71-5.52,4.4-11.04,4.68-17.68c-0.06,0-0.12,0-0.17,0c-1.27,1.04-2.54,2.08-3.81,3.12    c-0.02-10.3,6.46-13.23,10.05-19.93c-2.04-2.52-7.11,1.81-8.84,2.77c-5.69,3.17-10.92,7.1-14.73,12.13c-1.73,2.6-3.47,5.2-5.2,7.8    c0,0.12,0,0.23,0,0.35c-0.06,0-0.12,0-0.17,0c1.39-8.43,6.84-13.42,10.05-20.28c-5.85,2.05-15.63,8.64-18.72,13.52    c-2.02,4.27-4.04,8.55-6.07,12.82c0.4-0.12,0.81-0.23,1.21-0.35c0.35,0.75,0.69,1.5,1.04,2.25c-0.79,7.87-10.47,9.75-13,15.94    c3.98-1.98,7.48-4.32,10.92-6.76c-0.79,3.53-3.7,7.3-6.59,8.67c-0.4,0.52-0.81,1.04-1.21,1.56c4.4-1.07,6.8-5.14,11.44-6.07    c-1.1,1.79-2.2,3.58-3.29,5.37c7.92-2.88,8.69-14.56,15.77-18.54c-0.37,5.23-2.68,10.13-4.33,14.38    c-4.62,11.86-14.21,32.29-11.61,48.18c2.77-9.88,5.55-19.76,8.32-29.64c1.33,7.28,2.66,14.56,3.99,21.84    c5.18,20.89,11.45,48.12,2.95,70.02c-1.99,5.12-3.97,9.95-8.32,12.65c-3.84,2.39-9.95,3.09-15.94,2.77    c0.08-22.32,11.14-36.11,10.57-58.58c-0.06,0-0.12,0-0.17,0c-1.95,4.83-4.1,11.1-5.72,15.94c-0.12,0.06-0.23,0.12-0.35,0.17    c1.33-9.53,2.66-19.07,3.99-28.6c-1.05,0.76-6.19,13.43-6.93,15.42c-0.23,0.17-0.46,0.35-0.69,0.52    c-1.21-9.07-2.43-18.14-3.64-27.21c-0.52,0-1.04,0-1.56,0c-0.06-0.12-0.12-0.23-0.17-0.35c0.92-5.08,1.85-10.17,2.77-15.25    c-0.06,0-0.12,0-0.17,0c-6.41,4.78-10.79,18.54-8.15,30.33c1.03,4.6,2.8,8.58,4.51,12.65c1.73,4.13,6.42,14.08,2.6,19.41    c-0.06,0.12-0.12,0.23-0.17,0.35c-2.66-7.39-5.32-14.79-7.97-22.18c0-0.12,0-0.23,0-0.35c-0.06,0-0.12,0-0.17,0    c-0.52,3.12-1.04,6.24-1.56,9.36c-0.12,0.06-0.23,0.12-0.35,0.17c-1.66-5.84-2.02-13.32-2.43-21.14c-0.06,0-0.12,0-0.17,0    c-1.04,5.37-2.08,10.75-3.12,16.12c0,0.12,0,0.23,0,0.35c-1.96-1.61-2.45-7.16-1.73-10.75c1.42-7.13,5.34-12.4,6.41-19.24    c-1.21,1.27-2.43,2.54-3.64,3.81c-4.88,5-9.1,8.92-9.01,19.06c-3.69-7.95,3.25-21.41,5.55-26.17c0-0.06,0-0.12,0-0.17    c-6,1.67-6.86,7.6-10.92,11.09c1.68-18.36,12.1-22.68,19.41-34.49c0-0.06,0-0.12,0-0.17c-6.26,2.08-18.82,15.23-20.1,22.18    c-0.06,0-0.12,0-0.17,0c0.78-7.31,5.68-11.17,6.41-17.85c-2.95,1.27-5.89,2.54-8.84,3.81c-0.06,0-0.12,0-0.17,0    c1.75-6.52,10.94-12.87,15.08-18.02c10.98-13.68,23.86-25.61,34.49-39.69c3.84-5.09,10.46-17.95,15.42-20.8    c2.53-1.45,4.7,0.91,7.97,0.35c3.75-0.87,7.51-1.73,11.27-2.6c4.37-1.37,6.96-3.62,10.4-5.72c4.97-2.89,9.94-5.78,14.9-8.67    c8.39-4.98,27.71-14.17,41.25-8.84c9.37,3.69,14.74,13.27,15.08,25.82c0.12,0,0.23,0,0.35,0c3.05-10.24,6.58-21.65,14.9-26.69    c5.27-3.19,14.85-3.07,21.14-0.87c11.16,3.91,21.46,8.73,31.89,13.34c2.78,1.23,5.36,3.48,7.97,4.68    c3.99,1.16,7.97,2.31,11.96,3.47c6.7,1.17,12.49-1.04,17.68,1.21c6.53,2.84,14.46,13.07,18.89,18.54    c1.39,1.27,2.77,2.54,4.16,3.81c9.59,11.91,21.73,21.16,31.02,33.45c4.72,6.24,10.24,12.34,10.05,23.4c-0.12,0-0.23,0-0.35,0    c-2.17-9.61-9.77-19.17-16.98-23.92c1.56,2.02,3.12,4.04,4.68,6.07c4.43,6.21,9.71,14.59,9.88,24.61c-0.06,0-0.12,0-0.17,0    c-2.76-6.99-7.94-20.23-14.04-23.57c-0.06,0.06-0.12,0.12-0.17,0.17c1.5,3.47,3,6.93,4.51,10.4c-3.97-3.06-7.28-8-12.48-9.71    c2.49,4.17,6.43,7.35,9.36,11.09c5.75,7.35,10.25,15.88,12.31,26.86c-2.77-4.04-5.55-8.09-8.32-12.13c-0.06,0-0.12,0-0.17,0    c-0.06,0.06-0.12,0.12-0.17,0.17c2.29,5.6,5.65,10.5,5.55,18.2c-0.06,0-0.12,0-0.17,0c-2.58-8.55-9.86-16.86-17.33-20.62    c1.75,5.09,12.9,11.96,11.09,18.72c-0.58,0.64-1.16,1.27-1.73,1.91c-0.06,4.1-0.12,8.2-0.17,12.31    c-3.97-4.47-1.06-14.34-6.93-18.89c-0.06,0.06-0.12,0.12-0.17,0.17c2.42,7.05,0.85,24.41-2.77,29.64c0,0.12,0,0.23,0,0.35    c-0.17-3.52-0.35-7.05-0.52-10.57c-0.92,4.27-1.85,8.55-2.77,12.82C721.28,303.94,720.18,307.41,719.08,310.87z M698.28,185.92    c-2.39-4.47-13.47-11.45-20.28-11.61c1.33,1.33,2.66,2.66,3.99,3.99c5.44,5.44,10.91,11.94,20.45,13.17c0-0.06,0-0.12,0-0.17    c-1.85-1.56-3.7-3.12-5.55-4.68C697.36,186.38,697.82,186.15,698.28,185.92z M622.03,209.31c4.2-4.5,9.92-9.85,15.94-12.3    c0.06-0.12,0.12-0.23,0.17-0.35c-2.66,0.17-5.32,0.35-7.97,0.52c-0.06,0-0.12,0-0.17,0c-0.46-0.52-0.92-1.04-1.39-1.56    c2.31-1.73,4.62-3.47,6.93-5.2c-2.71,0.64-5.43,1.27-8.15,1.91c2.34-4.74,10.08-9.97,17.85-7.28c2.82,0.97,4.81,3.13,7.28,4.51    c-1.09-5.22-6.88-7.11-13.52-6.93c-3.96,1.6-7.66,1.54-10.92,3.47c-6.96,4.1-11.49,10.88-13.69,19.76    c-0.4,3.12-0.81,6.24-1.21,9.36c0,0.4,0,0.81,0,1.21C616.97,215.37,619.64,211.87,622.03,209.31z M523.76,183.66    c-3.79,1.51-7.5,1.19-9.19,4.68c10.13-3.46,16.41-4.08,21.32,5.03c-1.85-0.64-3.7-1.27-5.55-1.91c-0.06,0.06-0.12,0.12-0.17,0.17    c2.56,3.25,5.27,5.35,6.93,9.71c-2.83-0.75-5.66-1.5-8.49-2.25c1.45,6.47,18.26,11.25,20.1,17.33c0.35,0.12,0.69,0.23,1.04,0.35    c0.06,0,0.12,0,0.17,0C552.86,201,537.81,183.68,523.76,183.66z M636.93,208.62c-1.91,0.69-3.81,1.39-5.72,2.08    c-5.37,3.18-9.91,8.42-12.31,14.56c-6.03,15.43,11.19,37.73,20.28,42.29c-1.54-5.99-14.44-18.65-9.36-25.13    c3.58-5.23,12.95,1.56,18.89,0.35c4.17-0.85,10.13-7.49,14.21-6.41c3.42,0.9,5.32,5.17,9.01,6.41c-1.91-5.99-5.95-7.34-9.19-11.61    C656.03,222.27,652.51,208.5,636.93,208.62z M645.08,233.23c-7.38,3.23-15.84-1.2-17.16-7.45c-0.59-2.82,1.02-4.62,1.73-6.24    c0.17-0.12,0.35-0.23,0.52-0.35c0.56,3.05,1.78,7.23,3.47,9.36c0.82,1.03,2.07,1.42,3.47,1.91c5.91,2.08,8.88-1.64,10.75-5.72    c-2.9-1.1-5.69-2.08-6.93-4.85c0.12-0.92,0.23-1.85,0.35-2.77c0.92-0.64,1.85-0.99,2.95-1.56    C654.43,215.43,652.42,230.02,645.08,233.23z M541.44,216.59c-3.55-3.26-12.27-6.54-19.41-6.41c-2.3,1.07-4.54,1.25-6.41,2.6    c-6.78,4.88-9.01,14.67-13.69,21.66c-3.12,3.75-6.24,7.51-9.36,11.27c-0.23,0.23-0.46,0.46-0.69,0.69    c6.52-0.04,6.73-5.47,11.27-6.93c4.22-1.36,9.17,3.5,12.82,4.16c4.17,0.75,7.92-0.89,10.92-1.56c3.26-0.73,6.71,0.24,9.19,0.87    c2.35,15.37-6.56,19.11-10.4,30.33c4.38-1.6,7.82-8.16,10.4-11.79c4.56-6.42,10.05-12.91,12.13-21.66    c2.19-9.2-2.54-15.16-5.55-20.28C542.25,218.56,541.84,217.57,541.44,216.59z M529.65,234.44c-6.79,3.46-16.12-1.46-17.33-7.11    c-0.61-2.84,1.15-4.34,1.91-5.89c0.12-0.06,0.23-0.12,0.35-0.17c1.46,5.43,2.93,7.21,5.72,10.92c7.06,0.16,9.36-1.33,11.27-6.24    c-2.45-0.69-4.48-1.17-5.37-3.47c-1.47-2.03,2-4.54,3.47-5.2C538.61,218.45,534.74,231.86,529.65,234.44z M50.8,312.95    c2.1-0.91,4.43-2.74,5.72-4.51c2.3-3.15,3.15-7.54,4.68-11.44c2.66-6.93,5.32-13.87,7.97-20.8c1.86-4.72,2.93-10.11,6.59-13    c4.71-3.72,11.16-3.64,19.93-3.64c0-1.79,0-3.58,0-5.37c-14.32-0.08-22.3,1.36-27.56,10.05c-3.93,10.22-7.86,20.45-11.79,30.68    c-1.62,4.17-2.48,10.1-6.07,12.3c-3.04,1.87-8.32,1.55-13.17,1.56c0,1.73,0,3.47,0,5.2C41.88,314.02,47.44,314.4,50.8,312.95z     M104.35,254.2c-1.73,0-3.47,0-5.2,0c0,22.12,0,44.25,0,66.38c1.73,0,3.47,0,5.2,0C104.35,298.45,104.35,276.32,104.35,254.2z     M143.87,254.37c-2.6-0.06-5.2-0.12-7.8-0.17c-8.32,7.34-16.64,14.67-24.96,22.01c0-7.34,0-14.67,0-22.01c-1.79,0-3.58,0-5.37,0    c0,11.21,0,22.42,0,33.62c12.59-10.98,25.19-21.95,37.78-32.93C143.63,254.72,143.75,254.55,143.87,254.37z M160.5,320.75    c2.02,0,4.04,0,6.07,0c-10.28-16.69-20.57-33.39-30.85-50.09c6.12-5.43,12.25-10.86,18.37-16.29c-2.66-0.06-5.32-0.12-7.97-0.17    c-5.78,5.14-11.55,10.28-17.33,15.42C139.36,286.67,149.93,303.71,160.5,320.75z M223.07,315.55    c-15.94-0.06-31.89-0.12-47.83-0.17c0-20.39,0-40.79,0-61.18c-1.73,0-3.47,0-5.2,0c0,22.12,0,44.25,0,66.38    c17.68,0,35.36,0,53.03,0C223.07,318.9,223.07,317.23,223.07,315.55z M223.07,308.62c-13.69,0-27.38,0-41.07,0    c0-18.14,0-36.28,0-54.42c-1.73,0-3.47,0-5.2,0c0,19.93,0,39.86,0,59.79c15.42,0,30.85,0,46.27,0    C223.07,312.2,223.07,310.41,223.07,308.62z M287.89,315.38c-18.72,0-37.44,0-56.15,0c0-18.66,0-37.32,0-55.98    c17.68,0,35.36,0,53.03,0c0-1.73,0-3.47,0-5.2c-19.47,0-38.94,0-58.41,0c0,22.12,0,44.25,0,66.38c20.51,0,41.02,0,61.53,0    C287.89,318.85,287.89,317.11,287.89,315.38z M296.38,259.57c5.66-0.06,11.32-0.12,16.98-0.17c13.74,0,22.52-1.3,28.08,7.28    c1.26,1.94,2.67,5,2.43,8.32c-1.02,14.07-10.3,15.08-25.48,15.08c-6.82,0-13.63,0-20.45,0c0,10.17,0,20.34,0,30.5    c1.79,0,3.58,0,5.37,0c0-8.38,0-16.75,0-25.13c20.8,0.13,37.28,2.64,43.85-12.13c1.76-3.96,2.71-10.73,0.87-15.6    c-2.12-5.59-6.62-10.1-12.13-12.31c-4.2-1.68-10.68-1.21-16.46-1.21c-9.42,0-18.83,0-28.25,0c0,22.12,0,44.25,0,66.38    c1.73,0,3.47,0,5.2,0C296.38,300.24,296.38,279.91,296.38,259.57z M62.93,311.05c1.91-3.11,2.74-6.98,4.16-10.57    c2.66-6.93,5.32-13.87,7.97-20.8c1.75-4.46,2.57-9.95,6.41-12.3c2.98-1.82,9.62-1.03,14.21-1.04c0-1.79,0-3.58,0-5.37    c-7.44-0.05-14.03-0.27-18.2,2.77c-4.04,2.95-5.11,8.3-7.11,13.34c-3.76,9.51-9.61,31.64-17.16,36.22    c-3.84,2.33-9.8,2.08-16.12,2.08c0,1.79,0,3.58,0,5.37C50.29,320.82,58.04,319,62.93,311.05z M284.77,266.33c0-1.79,0-3.58,0-5.37    c-17.21,0-34.43,0-51.65,0c0,8.32,0,16.64,0,24.96c12.59,0,25.19,0,37.78,0c0-1.73,0-3.47,0-5.2c-10.86,0-21.72,0-32.58,0    c0-4.79,0-9.59,0-14.38C253.8,266.33,269.29,266.33,284.77,266.33z M340.4,281.58c1.19-1.93,2.53-5.05,1.91-8.67    c-1.97-11.42-10.83-11.96-24.44-11.96c-6.64,0-13.29,0-19.93,0c0,9.18,0,18.37,0,27.56c5.37,0.06,10.75,0.12,16.12,0.17    C327.2,288.69,335.24,289.99,340.4,281.58z M303.31,283.32c0-5.66,0-11.32,0-16.98c6.59,0,13.17,0,19.76,0    c2.94,0,6.68-0.37,8.84,0.52c2.67,1.1,4.63,3.72,5.2,6.93C339.41,286.83,314.76,283.46,303.31,283.32z M111.11,292.33    c5.08-4.51,10.17-9.01,15.25-13.52c8.72,13.98,17.45,27.96,26.17,41.94c2.02,0,4.04,0,6.07,0c-10.17-16.58-20.34-33.16-30.5-49.74    c-0.17-0.12-0.35-0.23-0.52-0.35c-7.28,6.35-14.56,12.71-21.84,19.06c0,10.28,0,20.57,0,30.85c1.79,0.06,3.58,0.12,5.37,0.17    C111.11,311.28,111.11,301.8,111.11,292.33z M637.8,285.74c1.59,4.7,1.72,10,2.77,15.25c3.16,15.7,5.13,30.69,18.37,36.22    c-0.98-5.14-5.13-8.02-7.28-12.13C647.32,316.76,644.56,289.15,637.8,285.74z M233.12,313.99c18.25,0,36.51,0,54.77,0    c0-1.79,0-3.58,0-5.37c-16.52,0-33.05,0-49.57,0c0-5.31,0-10.63,0-15.94c10.8,0,21.61,0,32.41,0c0.06-1.73,0.12-3.47,0.17-5.2    c-12.59,0-25.19,0-37.78,0C233.12,296.31,233.12,305.15,233.12,313.99z M154.96,402.38c-3.48,1.35-7.44,0.86-10.57,2.08    c-10.04,3.9-17.91,11.49-21.84,21.49c-8.44,21.5,5.29,40.87,19.76,47.14c4.13,1.79,10.61,4.18,17.16,3.12    c16.47-2.66,26.79-9.8,32.24-23.22C202.6,426.15,180.72,402,154.96,402.38z M185.98,451.95c-4.73,11.07-13.74,16.64-27.73,18.72    c-3.17,0.47-7.03-0.52-9.36-1.21c-14.8-4.38-28.93-21.26-20.97-41.59c3.4-8.7,10.83-15.72,20.1-18.54    c2.54-0.4,5.08-0.81,7.63-1.21C177.92,407.99,195.86,428.83,185.98,451.95z M234.51,402.38c-3.69,1.43-7.8,0.96-11.09,2.25    c-9.93,3.91-17.59,11.71-21.49,21.66c-8.67,22.1,6.4,41.3,21.14,47.31c3.89,1.59,10.12,3.57,16.12,2.6    c16.12-2.61,26.51-9.77,31.89-22.88C282.19,426.28,260.59,402,234.51,402.38z M265.18,452.64c-4.65,10.64-13.83,16.01-27.38,18.02    c-2.65,0.39-5.91-0.39-7.97-0.87c-15.35-3.55-30.53-21.06-22.53-41.59c3.48-8.92,10.78-16,20.28-18.89    c2.54-0.4,5.08-0.81,7.63-1.21C258.17,407.99,275.31,429.45,265.18,452.64z M362.93,402.38c-3.69,1.43-7.8,0.96-11.09,2.25    c-9.75,3.84-17.49,11.56-21.32,21.32c-8.45,21.52,5.28,40.87,19.76,47.14c4.17,1.81,10.71,4.19,17.33,3.12    c15.77-2.55,26.09-9.39,31.54-22.01C410.91,426.98,389.61,401.99,362.93,402.38z M394.3,451.08    c-4.66,11.58-13.71,17.45-28.08,19.58c-19.94,2.97-38.33-21.59-30.68-41.94c3.23-8.6,9.88-15.39,18.37-18.72    c2.92-1.15,6.58-0.67,9.88-1.91C385.38,408.01,403.5,428.19,394.3,451.08z M470.38,415.38c-6.55-9.53-25.25-16.98-40.73-10.92    c-11.45,4.49-20.02,13.45-23.22,26.17c-7.88,31.24,24.81,54.97,52.34,41.77c0,0.75,0,1.5,0,2.25c1.91,0.06,3.81,0.12,5.72,0.17    c0-4.39,0-8.78,0-13.17c-4.77,3.62-8.91,6.94-15.94,8.49c-19.57,4.32-40.53-13.93-37.26-33.62c2.29-13.79,9.42-23.22,21.49-27.04    c11.75-3.71,29.08,1.11,32.93,9.19c0.17,0.12,0.35,0.23,0.52,0.35C467.61,417.81,469,416.59,470.38,415.38z M556.52,415.55    c-3.38-7.32-18.38-13.41-30.16-13.17c-1.56,0.17-3.12,0.35-4.68,0.52c-2.54,0.75-5.08,1.5-7.63,2.25    c-11.44,4.91-19.35,14.67-22.01,28.42c-3.98,20.6,11.52,36.75,25.3,41.07c15.87,4.98,32.32-2.17,39.17-11.27    c-1.39-1.21-2.77-2.43-4.16-3.64c-4.23,3.6-7.61,7.28-13.52,9.36c-16.86,5.93-31.6-4.24-37.61-14.38    c-2.13-3.6-2.99-7.87-3.81-12.82c-3.29-19.88,18.41-38.06,38.3-33.1c7.68,1.91,11.73,5.73,16.64,10.23    C553.74,417.86,555.13,416.71,556.52,415.55z M112.15,413.99c0-3.47,0-6.93,0-10.4c-23.74,0-47.49,0-71.23,0c0,1.91,0,3.81,0,5.72    c21.83,0,43.68,0,65.51,0c0,0.75,0,1.5,0,2.25c-17.73,17.44-35.47,34.89-53.21,52.34c-1.1,1.16-2.2,2.31-3.29,3.47    c0,0.06,0,0.12,0,0.17c22.24,0,44.49,0,66.72,0c0-1.91,0-3.81,0-5.72c-17.68,0-35.36,0-53.03,0    C79.8,445.88,95.98,429.94,112.15,413.99z M282.86,403.77c-1.91-0.06-3.81-0.12-5.72-0.17c0,23.68,0,47.37,0,71.06    c18.89,0,37.78,0,56.67,0c0-1.85,0-3.7,0-5.55c-16.98,0-33.97,0-50.95,0C282.86,447.33,282.86,425.54,282.86,403.77z     M289.97,403.59c-1.85,0-3.7,0-5.55,0c-0.06,21.32-0.12,42.64-0.17,63.95c16.52,0,33.05,0,49.57,0c0-1.91,0-3.81,0-5.72    c-14.61,0-29.23,0-43.85,0C289.97,442.42,289.97,423,289.97,403.59z M475.23,474.65c1.91,0.06,3.81,0.12,5.72,0.17    c0-23.74,0-47.49,0-71.23c-1.85,0-3.7,0-5.55,0C475.35,427.28,475.29,450.97,475.23,474.65z M482.51,474.65c1.85,0,3.7,0,5.55,0    c0-23.68,0-47.37,0-71.06c-1.79,0-3.58,0-5.37,0C482.63,427.28,482.57,450.97,482.51,474.65z M631.21,414.17    c0-3.52,0-7.05,0-10.57c-23.68,0-47.37,0-71.06,0c0,1.91,0,3.81,0,5.72c21.83,0,43.68,0,65.51,0c0,0.75,0,1.5,0,2.25    c-15.94,15.65-31.89,31.31-47.83,46.97c-2.95,3-5.89,6.01-8.84,9.01c22.3,0,44.6,0,66.9,0c0-1.91,0-3.81,0-5.72    c-17.73,0-35.47,0-53.21,0C598.86,445.94,615.04,430.05,631.21,414.17z M639.53,474.82c1.85,0,3.7,0,5.55,0    c0.06-23.68,0.12-47.37,0.17-71.06c-1.91-0.06-3.81-0.12-5.72-0.17C639.53,427.33,639.53,451.08,639.53,474.82z M646.64,403.59    c0,3.23,0,6.47,0,9.71c16.46,16.06,32.93,32.12,49.39,48.18c1.62,1.62,3.24,3.24,4.85,4.85c0.06-20.91,0.12-41.83,0.17-62.74    c-1.91,0-3.81,0-5.72,0c0,16.46,0,32.93,0,49.39c-14.33-13.98-28.66-27.96-42.98-41.94c0-2.48,0-4.97,0-7.45    C650.45,403.59,648.54,403.59,646.64,403.59z M702.62,474.65c1.85,0,3.7,0,5.55,0c0-23.63,0-47.26,0-70.88    c-1.85-0.06-3.7-0.12-5.55-0.17C702.62,427.28,702.62,450.97,702.62,474.65z M711.8,403.59c9.7,14.44,19.41,28.89,29.12,43.33    c0,9.24,0,18.49,0,27.73c1.85,0.06,3.7,0.12,5.55,0.17c0.06-4.39,0.12-8.78,0.17-13.17c0-5.43,0-10.86,0-16.29    c-9.24-13.81-18.49-27.62-27.73-41.42C717.35,403.21,713.96,403.55,711.8,403.59z M767.44,403.59    c-6.59,9.94-13.17,19.87-19.76,29.81c-0.12,0.06-0.23,0.12-0.35,0.17c-6.7-9.99-13.4-19.99-20.1-29.98c-2.25,0-4.51,0-6.76,0    c8.9,13.34,17.79,26.69,26.69,40.03c0.12,0.06,0.23,0.12,0.35,0.17c8.95-13.4,17.91-26.81,26.86-40.21    C772.06,403.59,769.75,403.59,767.44,403.59z M748.2,445.19c0,9.88,0,19.76,0,29.64c1.85,0,3.7,0,5.55,0    c0.06-9.3,0.12-18.6,0.17-27.9c9.59-14.27,19.18-28.54,28.77-42.81c0.12-0.12,0.23-0.23,0.35-0.35c-2.2-0.06-4.39-0.12-6.59-0.17    C767.03,417.46,757.61,431.32,748.2,445.19z M153.74,409.66c-2.31,0.52-4.62,1.04-6.93,1.56c-7.96,3.09-14.39,9.24-17.5,17.16    c-8.46,21.53,10.3,44.57,32.76,40.38c17.28-3.23,31.22-21.61,22.18-42.29C179.57,415.76,169.57,409.46,153.74,409.66z     M160.68,463.21c-17.18,3.1-31.75-14.04-26.52-31.2c2.07-6.8,7.57-12.48,13.86-15.08c2.14-0.52,4.28-1.04,6.41-1.56    c13.18-0.12,21.09,5.2,24.96,14.21C186.54,446.24,174.4,460.74,160.68,463.21z M233.29,409.66c-2.48,0.58-4.97,1.16-7.45,1.73    c-7.86,3.08-14.08,9.46-17.16,17.33c-8.14,20.79,10.24,43.74,31.54,40.21c17.33-2.87,32.98-20.49,23.92-41.59    C259.35,416.17,249.68,409.44,233.29,409.66z M240.05,463.21c-17.98,3.16-32.48-15.73-25.82-32.76c2.35-6,7.42-11.1,13.34-13.52    c2.14-0.52,4.28-1.04,6.41-1.56c12.9-0.12,20.98,5.07,24.78,13.86C266.14,446.26,254.01,460.76,240.05,463.21z M361.72,409.66    c-2.31,0.52-4.62,1.04-6.93,1.56c-7.98,3.1-14.38,9.22-17.5,17.16c-8.47,21.54,10.3,44.58,32.76,40.38    c17.22-3.22,31.26-21.66,22.18-42.29C387.51,415.78,377.55,409.45,361.72,409.66z M368.65,463.21    c-17.59,3.21-32.67-15.41-26.17-32.24c2.42-6.26,7.39-11.5,13.52-14.04c2.14-0.52,4.28-1.04,6.41-1.56    c13.18-0.12,21.08,5.2,24.96,14.21C394.53,446.25,382.35,460.71,368.65,463.21z M435.89,416.07c8.34-2.52,20.9,1.26,23.57,6.41    c0.46,0.4,0.92,0.81,1.39,1.21c1.16-0.98,2.31-1.96,3.47-2.95c0.23-0.29,0.46-0.58,0.69-0.87c-4.24-3.61-7.57-7.3-13.69-9.19    c-17.03-5.24-31.57,5.71-36.22,16.46c-1.48,3.43-1.94,7.25-2.43,11.79c-1.93,17.81,17.85,34.13,36.57,29.46    c7-1.74,10.47-5.36,15.25-9.01c0-8.38,0-16.75,0-25.13c-1.91,0-3.81,0-5.72,0c0,7.57,0,15.14,0,22.7    c-13.48,15.11-44.02,2.12-40.21-20.45C420.34,425.97,426.48,418.91,435.89,416.07z M523.59,415.73    c8.42-1.98,20.17,2.33,22.53,7.28c1.68,1.07,2.44-1.2,4.16-2.08c1.39-1.99-1.99-4-3.81-5.37c-5.4-4.05-11.19-6.14-21.14-5.89    c-2.95,1.2-6.18,1.11-8.84,2.25c-7.96,3.41-14.5,10.87-16.81,19.93c-8.32,32.66,34.65,49.41,51.47,26.86    c-1.1-0.92-2.2-1.85-3.29-2.77c-0.29-0.29-0.58-0.58-0.87-0.87c-3.31,2.56-5.78,5.54-10.23,7.11c-14.19,5.01-26.57-4.1-30.5-13.52    c-1.03-2.47-1.25-5.26-1.73-8.32C502.56,427.78,514.53,417.85,523.59,415.73z M48.2,466.85c18.89-18.66,37.78-37.32,56.67-55.98    c-21.32,0-42.64,0-63.95,0c0,1.85,0,3.7,0,5.55c16.75,0.06,33.51,0.12,50.26,0.17c-16.17,15.89-32.35,31.78-48.53,47.66    c0,3.52,0,7.05,0,10.57c24.67,0,49.34,0,74,0c0-1.91,0-3.81,0-5.72c-22.82,0-45.64,0-68.46,0C48.2,468.35,48.2,467.6,48.2,466.85z     M567.44,466.85c18.14-17.85,36.28-35.7,54.42-53.55c0.69-0.75,1.39-1.5,2.08-2.25c-21.26-0.06-42.52-0.12-63.78-0.17    c0,1.91,0,3.81,0,5.72c16.69,0,33.39,0,50.09,0c-16.17,15.89-32.35,31.78-48.53,47.66c0,3.47,0,6.93,0,10.4    c24.67,0.06,49.34,0.12,74,0.17c0.06-1.91,0.12-3.81,0.17-5.72c-22.82,0-45.64,0-68.46,0    C567.44,468.35,567.44,467.6,567.44,466.85z M690.49,458.53c-14.61-14.27-29.23-28.54-43.85-42.81c0,19.64,0,39.29,0,58.93    c1.85,0.06,3.7,0.12,5.55,0.17c0.06-15.25,0.12-30.5,0.17-45.75c10.98,10.74,21.95,21.49,32.93,32.24    c3.45,3.06,10.08,7.17,10.05,13.34c1.85,0.06,3.7,0.12,5.55,0.17C702.95,467.01,693.97,462.01,690.49,458.53z M466.05,474.82    c1.85,0,3.7,0,5.55,0c0.06-13.52,0.12-27.04,0.17-40.55c-1.91,0-3.81,0-5.72,0C466.05,447.79,466.05,461.31,466.05,474.82z"
   id="path1"
   style="fill:#22280b" />
	</g>
</g>
</svg>
